# xmcd
#
# Track frame offsets:
#	150
#	4079
#	6139
#	8831
#	12597
#	20350
#	26277
#	28669
#	31816
#	37513
#	41015
#	44339
#	48351
#	53437
#	56863
#	60151
#	61659
#	65271
#	72607
#	76842
#	85746
#	89156
#	93566
#	99694
#	105959
#	115084
#	119155
#	129608
#	137879
#
# Disc length: 1924 seconds
#
# Revision: 1
# Processed by: cddbd v1.5.2PL0 Copyright (c) Steve Scherf et al.
# Submitted via: audiograbber 1.83.01
#
DISCID=7007821d
DTITLE=F.U.B.A.R. and Sylvester Staline - F.U.B.A.R. and Sylvester Staline Split
DYEAR=2009
DGENRE=Grind
TTITLE0=F.U.B.A.R. - Cold Moment Of Terror
TTITLE1=F.U.B.A.R. - Assimilated
TTITLE2=F.U.B.A.R. - Crawling
TTITLE3=F.U.B.A.R. - Prejudice Bastards
TTITLE4=F.U.B.A.R. - Infected
TTITLE5=F.U.B.A.R. - Not even you
TTITLE6=F.U.B.A.R. - Sanity is a ghost
TTITLE7=F.U.B.A.R. - No direction
TTITLE8=F.U.B.A.R. - We are running out of ignorance
TTITLE9=F.U.B.A.R. - Complete Silence
TTITLE10=F.U.B.A.R. - Start digging graves for the masses
TTITLE11=F.U.B.A.R. - Gonna give Sylvester Staline drinking lessons with the ro
TTITLE11=yalties generated by this song
TTITLE12=Sylvester Staline - Smoke Weed
TTITLE13=Sylvester Staline - Reggea Music
TTITLE14=Sylvester Staline - I don't pay to fuck
TTITLE15=Sylvester Staline - Global warming
TTITLE16=Sylvester Staline - La Bagarre
TTITLE17=Sylvester Staline - Through the eyes of the weed
TTITLE18=Sylvester Staline - Smoking kills
TTITLE19=Sylvester Staline - I don't want
TTITLE20=Sylvester Staline - Problems in life
TTITLE21=Sylvester Staline - Punk bitch
TTITLE22=Sylvester Staline - Fuck you
TTITLE23=Sylvester Staline - Legalize it
TTITLE24=Sylvester Staline - Life
TTITLE25=Sylvester Staline - Get revolutionnnary
TTITLE26=Sylvester Staline - Pissed off
TTITLE27=Sylvester Staline - Stoner Punk Grind
TTITLE28=Sylvester Staline - F.U.B.A.R.
EXTD=
EXTT0=
EXTT1=
EXTT2=
EXTT3=
EXTT4=
EXTT5=
EXTT6=
EXTT7=
EXTT8=
EXTT9=
EXTT10=
EXTT11=
EXTT12=
EXTT13=
EXTT14=
EXTT15=
EXTT16=
EXTT17=
EXTT18=
EXTT19=
EXTT20=
EXTT21=
EXTT22=
EXTT23=
EXTT24=
EXTT25=
EXTT26=
EXTT27=
EXTT28=
PLAYORDER=
